# xmcd
#
# Track frame offsets: 
#        150
#        12975
#        25565
#        38282
#        52193
#        65155
#        83069
#        95386
#        110279
#        121330
#        133189
#        146254
#        161023
#        174783
#        190102
#        204244
#        217018
#        233113
#        246375
#        259773
#
# Disc length: 4222 seconds
#
# Revision: 1
# Processed by: cddbd v1.5.2PL0 Copyright (c) Steve Scherf et al.
# Submitted via: ExactAudioCopy v0.95b4
#
DISCID=0c107c14
DTITLE=Various Artist - Tenor Madness- A Tenor Sax Anthology [CD 2)
DYEAR=1997
DGENRE=Jazz
TTITLE0=Chu Berry - Blowing Up a Breeze
TTITLE1=Dexter Gordon - Sweet and Lovely
TTITLE2=Al Sears - Hiawatha
TTITLE3=Ben Webster - I Surrender Dear
TTITLE4=Vernon Story - Storyville
TTITLE5=Ike Quebec - Blue Turning Grey Over You
TTITLE6=Lucky Thompdon - Cherokee
TTITLE7=Buddy Tate - Playhouse No.2 Stomp
TTITLE8=Illinois Jacquet - Goofin' Off
TTITLE9=Bud Freeman - I Got Rhythm
TTITLE10=Harold Land - San Diego Bounce
TTITLE11=Allen Eager - Groovin' High
TTITLE12=Paul Quinchette - Prevue
TTITLE13=Henry Bridges - A la Bridges
TTITLE14=Arnett Cobb - When I Grow Too Old to Dream
TTITLE15=Tom Archia - Hi Ho Treilers Boot Whip
TTITLE16=Flip Phillips - Don't Take Your Love From Me
TTITLE17=Dick Wilson - Zonky
TTITLE18=Morris Lane - Luke the Spook
TTITLE19=Paul Gonsalves - Diminuendo in Blue-Crescendo in Blue
EXTD=
EXTT0=
EXTT1=
EXTT2=
EXTT3=
EXTT4=
EXTT5=
EXTT6=
EXTT7=
EXTT8=
EXTT9=
EXTT10=
EXTT11=
EXTT12=
EXTT13=
EXTT14=
EXTT15=
EXTT16=
EXTT17=
EXTT18=
EXTT19=
PLAYORDER=
